<svg xmlns="http://www.w3.org/2000/svg" viewBox="0 0 1700 1320" role="img" aria-labelledby="title desc">
  <title id="title">Motion Tracker codebase line count split</title>
  <desc id="desc">A donut chart showing 41,968 lines of application code, 24,819 lines of automated testing, 4,463 lines of tooling, 1,088 lines of store integration, and 436 lines of documentation.</desc>
  
  <defs>
    <radialGradient id="bgGlow" cx="48%" cy="35%" r="78%">
      <stop offset="0%" stop-color="#14352f"/>
      <stop offset="58%" stop-color="#071713"/>
      <stop offset="100%" stop-color="#020504"/>
    </radialGradient>
    <pattern id="scanlines" width="7" height="7" patternUnits="userSpaceOnUse">
      <path d="M 0 0 H 7" stroke="#d8ffe0" stroke-opacity="0.045" stroke-width="1"/>
    </pattern>
    <filter id="softGlow" x="-35%" y="-35%" width="170%" height="170%">
      <feGaussianBlur stdDeviation="5" result="blur"/>
      <feMerge>
        <feMergeNode in="blur"/>
        <feMergeNode in="SourceGraphic"/>
      </feMerge>
    </filter>
    <style>
      :root { color-scheme: dark; }
      .bg { fill: url(#bgGlow); }
      .scan { fill: url(#scanlines); opacity: 0.55; }
      .title, .label, .small, .legend-title, .legend-lines, .legend-detail, .center-number, .center-label, .pct, .donut-pct, .stack-pct {
        font-family: Inter, ui-sans-serif, system-ui, -apple-system, BlinkMacSystemFont, "Segoe UI", sans-serif;
        letter-spacing: 0;
      }
      .title { fill: #effff4; font-size: 54px; font-weight: 860; }
      .subtitle { fill: #b6d8c2; font-size: 28px; font-weight: 650; }
      .small { fill: #94bba4; font-size: 19px; font-weight: 620; }
      .legend-title { fill: #effff4; font-size: 40px; font-weight: 850; }
      .legend-lines { fill: #b8d9c3; font-size: 28px; font-weight: 700; }
      .legend-detail { fill: #b8d9c3; font-size: 28px; font-weight: 640; }
      .center-number { fill: #effff4; font-size: 62px; font-weight: 900; text-anchor: middle; }
      .center-label { fill: #b8d9c3; font-size: 30px; font-weight: 720; text-anchor: middle; }
      .pct { fill: #06110e; font-size: 22px; font-weight: 900; text-anchor: middle; dominant-baseline: central; }
      .donut-pct { font-size: 34px; font-weight: 940; text-anchor: middle; dominant-baseline: central; }
      .stack-pct { fill: #effff4; font-size: 22px; font-weight: 900; text-anchor: middle; dominant-baseline: central; }
      .arm { fill: none; stroke-width: 4; stroke-linecap: square; stroke-linejoin: miter; opacity: 0.95; }
      .hairline { stroke: #eaffef; stroke-opacity: 0.12; stroke-width: 1; }
      .panel-line { stroke: #d8ffe0; stroke-opacity: 0.16; stroke-width: 1.2; }
    </style>
  </defs>
  <rect class="bg" width="1700" height="1320"/>
  <rect class="scan" width="1700" height="1320"/>
  <text class="title" x="70" y="78">Motion Tracker codebase</text>
  <text class="subtitle" x="70" y="116">72,774 counted lines, grouped by what they do</text>
  <g filter="url(#softGlow)">
    
    <path d="M 535.192 605.993 A 315 315 0 1 1 1134.058 731.148 L 1012.319 672.799 A 180 180 0 1 0 670.110 601.282 Z" fill="#49efff" opacity="0.96"/>
    <path d="M 535.192 605.993 A 315 315 0 1 1 1134.058 731.148 L 1012.319 672.799 A 180 180 0 1 0 670.110 601.282 Z" fill="none" stroke="#06110e" stroke-width="3" opacity="0.75"/>
    <path d="M 1134.058 731.148 A 315 315 0 0 1 1120.035 757.192 L 1004.306 687.681 A 180 180 0 0 0 1012.319 672.799 Z" fill="#7affc7" opacity="0.96"/>
    <path d="M 1134.058 731.148 A 315 315 0 0 1 1120.035 757.192 L 1004.306 687.681 A 180 180 0 0 0 1012.319 672.799 Z" fill="none" stroke="#06110e" stroke-width="3" opacity="0.75"/>
    <path d="M 1120.035 757.192 A 315 315 0 0 1 567.447 734.244 L 688.541 674.568 A 180 180 0 0 0 1004.306 687.681 Z" fill="#ff70c8" opacity="0.96"/>
    <path d="M 1120.035 757.192 A 315 315 0 0 1 567.447 734.244 L 688.541 674.568 A 180 180 0 0 0 1004.306 687.681 Z" fill="none" stroke="#06110e" stroke-width="3" opacity="0.75"/>
    <path d="M 567.447 734.244 A 315 315 0 0 1 535.192 605.993 L 670.110 601.282 A 180 180 0 0 0 688.541 674.568 Z" fill="#ffdc7a" opacity="0.96"/>
    <path d="M 567.447 734.244 A 315 315 0 0 1 535.192 605.993 L 670.110 601.282 A 180 180 0 0 0 688.541 674.568 Z" fill="none" stroke="#06110e" stroke-width="3" opacity="0.75"/>
  </g>
  <circle cx="850" cy="595" r="164" fill="#06110e" opacity="0.86"/>
  <text class="center-number" x="850" y="587">72 774</text>
  <text class="center-label" x="850" y="630">lines of code</text>
  
    <path class="arm" d="M 900.6 352.7 L 940.5 153.9" stroke="#00a9bd"/>
    
    <circle cx="900.6" cy="352.7" r="48" fill="#04282d" stroke="#00a9bd" stroke-width="6" filter="url(#softGlow)"/>
    <text class="donut-pct" x="900.6" y="352.7" fill="#c9fbff">58%</text>
    <circle cx="940.5" cy="153.9" r="12" fill="#00a9bd"/>
    <text class="legend-title" x="974.5" y="160.8576661362169" text-anchor="start">Application</text><text class="legend-detail" x="974.5" y="199.8576661362169" text-anchor="start">41 968 lines for</text><text class="legend-detail" x="974.5" y="238.8576661362169" text-anchor="start">the actual motion tracker app</text>
    <path class="arm" d="M 1067.9 712.3 L 1239.6 796.8" stroke="#20bd7c"/>
    
    <circle cx="1067.9" cy="712.3" r="48" fill="#052717" stroke="#20bd7c" stroke-width="6" filter="url(#softGlow)"/>
    <text class="donut-pct" x="1067.9" y="712.3" fill="#d9ffed">1%</text>
    <circle cx="1239.6" cy="796.8" r="12" fill="#20bd7c"/>
    <text class="legend-title" x="1273.6" y="803.7791549216445" text-anchor="start">Store</text><text class="legend-detail" x="1273.6" y="842.7791549216445" text-anchor="start">1 088 lines for</text><text class="legend-detail" x="1273.6" y="881.7791549216445" text-anchor="start">the App Store and</text><text class="legend-detail" x="1273.6" y="920.7791549216445" text-anchor="start">Google Play Store</text>
    <path class="arm" d="M 839.7 842.3 L 831.6 1029.1" stroke="#bf2380"/>
    
    <circle cx="839.7" cy="842.3" r="48" fill="#2b071c" stroke="#bf2380" stroke-width="6" filter="url(#softGlow)"/>
    <text class="donut-pct" x="839.7" y="842.3" fill="#ffe1f2">34%</text>
    <circle cx="831.6" cy="1029.1" r="12" fill="#bf2380"/>
    <text class="legend-title" x="797.6" y="1036.1189548591901" text-anchor="end">Automated testing</text><text class="legend-detail" x="797.6" y="1075.1189548591901" text-anchor="end">24 819 lines to make</text><text class="legend-detail" x="797.6" y="1114.1189548591901" text-anchor="end">sure that everything</text><text class="legend-detail" x="797.6" y="1153.1189548591901" text-anchor="end">behaves correctly</text>
    <path class="arm" d="M 610.0 655.4 L 420.9 694.9" stroke="#c58b1a"/>
    
    <circle cx="610.0" cy="655.4" r="48" fill="#2c2105" stroke="#c58b1a" stroke-width="6" filter="url(#softGlow)"/>
    <text class="donut-pct" x="610.0" y="655.4" fill="#fff1c4">7%</text>
    <circle cx="420.9" cy="694.9" r="12" fill="#c58b1a"/>
    <text class="legend-title" x="386.9" y="701.9287699020679" text-anchor="end">Tooling</text><text class="legend-detail" x="386.9" y="740.9287699020679" text-anchor="end">4 899 lines for</text><text class="legend-detail" x="386.9" y="779.9287699020679" text-anchor="end">tools, debug, config</text>
  <text class="small" x="70" y="1270">Tracked source/control files only. Generated files, binary assets, imported Godot metadata, and compiled plugins are excluded.</text>
</svg>