<svg xmlns="http://www.w3.org/2000/svg" viewBox="0 0 420 610" role="img" aria-labelledby="android-all-title android-all-desc"><title id="android-all-title">Android purchase tiers, all-time including Android beta</title><desc id="android-all-desc">Slices show purchase counts. Humble: 96 purchases (77.4 percent); Fair: 17 purchases (13.7 percent); Supporter: 11 purchases (8.9 percent). Monetary labels show gross sales before store commission.</desc><rect x="1" y="1" width="418" height="608" rx="20" fill="#101923" stroke="#344452"/><g font-family="system-ui, -apple-system, sans-serif" fill="#f4f6f8"><text x="210" y="42" text-anchor="middle" font-size="25" font-weight="700">Android</text><circle cx="210" cy="171" r="98" fill="none" stroke="#5ed4bf" stroke-width="33" stroke-dasharray="476.7113497576253 139.04081034597408" stroke-dashoffset="0" transform="rotate(-90 210 171)"/><circle cx="210" cy="171" r="98" fill="none" stroke="#f3bd69" stroke-width="33" stroke-dasharray="84.41763485291281 531.3345252506866" stroke-dashoffset="-476.7113497576253" transform="rotate(-90 210 171)"/><circle cx="210" cy="171" r="98" fill="none" stroke="#bc9cf5" stroke-width="33" stroke-dasharray="54.62317549306124 561.1289846105382" stroke-dashoffset="-561.1289846105382" transform="rotate(-90 210 171)"/><g transform="translate(190,137)" fill="#edf3f8" color="#edf3f8"><path d="m10 10-3-5M30 10l3-5" fill="none" stroke="currentColor" stroke-width="2.4" stroke-linecap="round"/><path d="M3 24a17 17 0 0 1 34 0v3H3Z"/><circle cx="12" cy="19" r="2" fill="#101923"/><circle cx="28" cy="19" r="2" fill="#101923"/><path d="M4 30h32v8a4 4 0 0 1-4 4h-3v5h-5v-5h-8v5h-5v-5H8a4 4 0 0 1-4-4Z"/></g><text x="210" y="207" text-anchor="middle" fill="#c4d0d9" font-size="17">124 purchases</text><circle cx="34" cy="339" r="6" fill="#5ed4bf"/><text x="51" y="344" font-size="20" font-weight="650">Humble</text><text x="386" y="344" text-anchor="end" font-size="20" font-weight="650">96 · 77.4%</text><text x="51" y="372" fill="#b5c3d0" font-size="17">Gross sales</text><text x="386" y="372" text-anchor="end" fill="#dfe7ee" font-size="19" data-report-eur="684.69">€684.69</text><circle cx="34" cy="419" r="6" fill="#f3bd69"/><text x="51" y="424" font-size="20" font-weight="650">Fair</text><text x="386" y="424" text-anchor="end" font-size="20" font-weight="650">17 · 13.7%</text><text x="51" y="452" fill="#b5c3d0" font-size="17">Gross sales</text><text x="386" y="452" text-anchor="end" fill="#dfe7ee" font-size="19" data-report-eur="209.42">€209.42</text><circle cx="34" cy="499" r="6" fill="#bc9cf5"/><text x="51" y="504" font-size="20" font-weight="650">Supporter</text><text x="386" y="504" text-anchor="end" font-size="20" font-weight="650">11 · 8.9%</text><text x="51" y="532" fill="#b5c3d0" font-size="17">Gross sales</text><text x="386" y="532" text-anchor="end" fill="#dfe7ee" font-size="19" data-report-eur="190.97">€190.97</text><path d="M28 549H392" stroke="#344452"/><text x="28" y="580" font-size="18" fill="#b5c3d0">Total gross sales</text><text x="392" y="580" text-anchor="end" font-size="22" font-weight="700" data-report-eur="1085.08">€1,085.08</text></g></svg>